#!OML:ASF E:/inclinewalkrobotboard/Project1/Captureday1/Session1/subject1.ASF
:FULLY-SPECIFIED
:DEGREES
63
root 0 0 0 2.149360420886398 -3.904343943482859 2.623736798714203
lowerback 12.238557662122863 0.9056754419602245 -0.5835082200728768
upperback -4.095562366074251 1.101624514210389 -0.7367720744052654
thorax -11.267490046565559 0.5099975538970678 -0.7091905784384185
lowerneck -7.087701548741973 1.426737261430293 4.3258386324421085
upperneck 19.16800158263402 2.914004306475621 -8.259703393061983
head 7.172720793218372 1.0056480711916085 -3.191777731991616
rclavicle -1.4003102889320462E-15 -1.7673445506906998E-15
rhumerus 17.30979926757646 13.109329252973792 -51.137734130040215
rradius 68.80618007638749
rwrist 24.013981928460858
rhand -32.974167965166124 -49.22837784978355
rfingers 7.125019999999964
rthumb -6.239884272000353 -79.29631309642431
lclavicle 3.8390333057813247E-16 1.206961121723334E-16
lhumerus 17.9746075492179 -13.801637173528247 49.38866716434862
lradius 67.39547797659499
lwrist -18.212133072539864
lhand -44.0328408949083 -60.65813481310455
lfingers 7.1250199999999575
lthumb -16.865094007638454 -31.223578882822675
rfemur -33.6700573290246 -1.1587803313905969 16.20790009496671
rtibia 51.09693140710481
rfoot -21.682477717771476 -16.729805808377694
rtoes -12.843263596531978
lfemur -25.228651864277797 4.031129155121325 -15.679122256518838
ltibia 55.54358994929252
lfoot -21.511421592837433 0.9240409436123542
ltoes -12.775158927043478
64
root 0 0 0 2.439348257594661 -4.058000570721607 2.4491810476644225
lowerback 12.133305492614534 1.0052486584506097 -0.3952117610124972
upperback -4.138164069319601 1.2560524579831565 -0.7555575451092474
thorax -11.233997950737754 0.5790638353308297 -0.8591247393933743
lowerneck -7.038836569532749 1.3992420618498393 4.318700386037204
upperneck 19.033791467970754 2.8684898127841665 -8.195061532702818
head 7.120051920840657 0.992130489137056 -3.171326763159195
rclavicle -1.5047201277601804E-15 -1.4797464080674595E-15
rhumerus 17.731472183064334 13.683346689816878 -51.488716808660364
rradius 69.14577492803122
rwrist 23.621555931047393
rhand -32.986181033248165 -49.183720931459575
rfingers 7.125019999999964
rthumb -6.253312157899977 -79.23776547416053
lclavicle 5.426063779840273E-16 4.2475648348161963E-16
lhumerus 18.040741287029405 -13.981877515045948 49.462103021046055
lradius 67.49390318927718
lwrist -18.098158177768127
lhand -44.02283589644949 -60.45677686003387
lfingers 7.1250199999999575
lthumb -16.85378999347125 -31.02277808888707
rfemur -30.378085527072265 -0.31938083356872315 17.652696357075826
rtibia 45.95709703590793
rfoot -26.07520846564573 -17.292623009883396
rtoes -15.648617411964187
lfemur -25.220218327309773 2.891985055092771 -15.926784093472294
ltibia 45.684759289321285
lfoot -27.33883511470026 4.98556086423156
ltoes -15.021248921210987
65
root 0 0 0 2.6722685021005526 -4.1913279639226 2.3222140125139097
lowerback 12.014878837198856 1.0964956042901988 -0.25833888092190693
upperback -4.171368852767561 1.3913025123019003 -0.7807522097038789
thorax -11.18524764046742 0.6406830566519113 -0.9816180138888553
lowerneck -7.003076433755077 1.3630552247161554 4.296291964379134
upperneck 18.94470134491688 2.810559789239603 -8.110815492327077
head 7.085142573902277 0.9725958030913165 -3.1436586177682253
rclavicle -1.4766128042925026E-15 -1.1543648326574748E-15
rhumerus 17.979220546386998 14.046643205298418 -51.745806877557236
rradius 69.34524132842299
rwrist 23.342730540419105
rhand -32.98161957669792 -49.10238801294131
rfingers 7.125019999999963
rthumb -6.2497259128577 -79.14852847159855
lclavicle 7.551534605866145E-16 7.328403525458643E-16
lhumerus 18.002484330532205 -14.01903204845026 49.51526293838225
lradius 67.47860360882163
lwrist -18.04282072136791
lhand -43.995011893137516 -60.29766525683967
lfingers 7.125019999999957
lthumb -16.82588940661182 -30.860134924346465
rfemur -27.35356244099691 0.6674917438231056 18.99186036781631
rtibia 40.01957897734442
rfoot -29.063574313790326 -17.347314369399037
rtoes -18.162359847248855
lfemur -24.033122101677968 1.773671367534869 -16.07936962460161
ltibia 38.21700301696075
lfoot -30.393747788331993 7.020839579894409
ltoes -17.357638831826364
66
root 0 0 0 2.8103166919171785 -4.255624823035049 2.244496369526578
lowerback 11.910166315514731 1.1514353126533323 -0.18079923674085052
upperback -4.191921630380356 1.470854324349593 -0.7966075441952366
thorax -11.135901469172246 0.6771843543742078 -1.0513676241987209
lowerneck -6.985533433107923 1.3289744628710916 4.2744123441902575
upperneck 18.938040651404886 2.7575746778784556 -8.045891847244723
head 7.080926546313985 0.9525104519290343 -3.1230454610081066
rclavicle -1.4221206828113295E-15 -8.543568414077035E-16
rhumerus 17.964074998833134 14.061457517723516 -51.80494776977156
rradius 69.33120032196257
rwrist 23.28852593504738
rhand -32.96447973722914 -49.02368127010626
rfingers 7.125019999999963
rthumb -6.232216352230353 -79.06913715573194
lclavicle 8.826877195869177E-16 9.540487855070293E-16
lhumerus 17.868046461917196 -13.896678426354255 49.52945314725747
lradius 67.35192270658406
lwrist -18.067501556247763
lhand -43.95659817110988 -60.2318491884075
lfingers 7.125019999999957
lthumb -16.788697097933163 -30.787942432702902
rfemur -25.36434333295018 1.6017117811387747 19.80283382331244
rtibia 34.5208885887775
rfoot -29.858582854613385 -16.964213727130726
rtoes -19.948383738901846
lfemur -22.47835770036603 0.7853391821905459 -16.068545192681658
ltibia 33.14823635448598
lfoot -30.100096174013544 7.229836113790518
ltoes -18.678534739332655
67
root 0 0 0 2.8609750338410307 -4.257222612739226 2.214036786203837
lowerback 11.834041282176443 1.169566710944678 -0.1544067454987459
upperback -4.204761837022424 1.4959684456924602 -0.803221078807831
thorax -11.099940510812303 0.6885864184617796 -1.074819287243748
lowerneck -6.971880818329136 1.301580212940457 4.263510468546648
upperneck 19.025710808072187 2.716593574144869 -8.021622966064559
head 7.108844415514782 0.9344964782491628 -3.117553778338098
rclavicle -1.2881011674700564E-15 -7.016370401315244E-16
rhumerus 17.698251448942564 13.73331251636771 -51.653159995343415
rradius 69.11606707740042
rwrist 23.468698296162792
rhand -32.94106675454421 -48.9730145760895
rfingers 7.125019999999962
rthumb -6.207382779537994 -79.02499496347987
lclavicle 9.597851089628422E-16 1.0061111134589865E-15
lhumerus 17.657238542011463 -13.623827030756075 49.49673543520561
lradius 67.130609548764
lwrist -18.177186165618906
lhand -43.914621598576204 -60.284398018089256
lfingers 7.125019999999956
lthumb -16.74906539421904 -30.83274995207874
rfemur -24.246594414936265 2.0684215953353924 19.915253796344672
rtibia 32.142265230854676
rfoot -28.653475904255437 -16.342107114489064
rtoes -20.888838173726224
lfemur -20.99125618228817 0.11524162700776974 -15.81833353151921
ltibia 30.988645059622893
lfoot -27.92753778832587 6.2634406915704135
ltoes -19.47906041301008
68
root 0 0 0 2.779259913016966 -4.208357946735209 2.2714862364399213
lowerback 11.79731321183015 1.1514045724426003 -0.20672860669477755
upperback -4.21564876809338 1.463421243787502 -0.8123655470050563
thorax -11.091875664931987 0.6739948722078907 -1.0484635328464498
lowerneck -6.929510451409933 1.280938492980949 4.271102260535832
upperneck 19.290099090571953 2.688861942982279 -8.063552357699315
head 7.191481811236866 0.917373928532882 -3.137099251151702
rclavicle -8.565221001211463E-16 -8.060772121006714E-16
rhumerus 17.038886267452895 12.86397039541003 -51.16395227879118
rradius 68.58587007351457
rwrist 24.02431148999782
rhand -32.90900422809312 -48.9738231111913
rfingers 7.125019999999962
rthumb -6.173122486955442 -79.04860544416894
lclavicle 1.0764363174453231E-15 7.863992836414673E-16
lhumerus 17.322318429194233 -13.071101880233346 49.36692165140485
lradius 66.73911153344828
lwrist -18.453357064606877
lhand -43.87155869090093 -60.57809446988546
lfingers 7.125019999999955
lthumb -16.709660298153768 -31.118525141044447
rfemur -24.465140774972134 1.486416725293651 18.70225266438701
rtibia 36.75786499203816
rfoot -23.685759270602126 -15.19005307697305
rtoes -20.3775958833444
lfemur -18.943387418262475 -0.026103607189343958 -15.26128219756764
ltibia 33.70870645527167
lfoot -23.14390625948801 3.1819351056303145
ltoes -20.392034721682645
69
root 0 0 0 2.601280353893853 -4.155763744029174 2.4102526627882095
lowerback 11.836869363002851 1.115762620018605 -0.32960965154220134
upperback -4.211514426049077 1.4001349823452083 -0.8279055948537456
thorax -11.119870212646788 0.6466536001624267 -0.9853943928919575
lowerneck -6.891270322694558 1.2905637136736023 4.284622768630808
upperneck 19.466721481803102 2.7057513636415464 -8.119933703762044
head 7.245024246568635 0.9200245455205248 -3.1577057307630794
rclavicle -5.784516445643412E-16 -1.0476642393271622E-15
rhumerus 16.573711763259958 12.22546014906334 -50.766661675221485
rradius 68.21111820606109
rwrist 24.4675993485417
rhand -32.897764936667976 -49.030936366696665
rfingers 7.125019999999962
rthumb -6.1609046541458135 -79.12986961846212
lclavicle 1.0703771163196816E-15 4.748796529534955E-16
lhumerus 17.199320135052567 -12.758542500280162 49.24558819355162
lradius 66.55929624291326
lwrist -18.648476388060708
lhand -43.87739992437046 -60.88212332635373
lfingers 7.125019999999955
lthumb -16.716935959411867 -31.42361254272389
rfemur -26.583782371428885 0.14410177236089883 16.911731338040298
rtibia 45.64884420571914
rfoot -18.354412454878716 -14.37693322868144
rtoes -18.22713684869183
lfemur -17.691633167253308 0.6939034958386562 -15.010875211703825
ltibia 40.54060406453747
lfoot -19.61900513015902 0.006813730323067535
ltoes -20.897574492993613
